<?xml version="1.0" encoding="utf-8"?>
<!-- Generator: Adobe Illustrator 24.2.3, SVG Export Plug-In . SVG Version: 6.00 Build 0)  -->
<svg version="1.1" id="Layer_1" xmlns="http://www.w3.org/2000/svg" xmlns:xlink="http://www.w3.org/1999/xlink" x="0px" y="0px"
	 viewBox="0 0 575.86 118.97" style="enable-background:new 0 0 575.86 118.97;" xml:space="preserve">
<style type="text/css">
	.st0{fill:#FFFFFF;}
</style>
<g>
	<g>
		<path class="st0" d="M170.34,43.09c0,13.12-7.72,17.87-21.6,17.87c-12.95,0-21.27-4.88-21.27-15.62v-0.91h14.09
			c0.27,4.76,1.74,7.5,7.31,7.5c4.36,0,7.38-2.07,7.38-8.91V15.76h14.09V43.09z"/>
		<path class="st0" d="M199.35,14.6c18.42,0,26.17,9.88,26.17,23.18c0,13.3-7.75,23.18-26.17,23.18c-18.42,0-26.17-9.88-26.17-23.18
			C173.17,24.48,180.92,14.6,199.35,14.6z M199.35,51.93c9.76,0,12.99-6.41,12.99-14.15c0-7.75-3.23-14.15-12.99-14.15
			c-9.76,0-12.99,6.41-12.99,14.15C186.35,45.53,189.58,51.93,199.35,51.93z"/>
		<path class="st0" d="M228.98,15.76h12.81v17.51h21.66V15.76h12.81V59.8h-12.81V42.29h-21.66V59.8h-12.81V15.76z"/>
		<path class="st0" d="M279.85,15.76h16.84l20.07,31.72h0.12V15.76h11.35V59.8h-16.96l-19.95-31.72h-0.12V59.8h-11.35V15.76z"/>
		<path class="st0" d="M343.86,45.53c0.13,5.61,2.95,6.89,9.53,6.89c8.32,0,9.59-2.68,9.59-4.64c0-2.93-3.35-3.9-8.92-4.88
			l-6.91-1.22c-7.98-1.4-16.37-4.09-16.37-12.51c0-10.8,11-14.58,22.07-14.58c17.71,0,22.74,4.94,23.21,13.73h-13.69
			c-0.4-4.51-4.43-5.19-8.66-5.19c-6.17,0-8.86,1.89-8.86,4.33c0,2.99,4.43,3.78,9.59,4.76l6.51,1.22
			c8.86,1.65,16.1,4.27,16.1,12.99c0,12.26-13.62,14.52-24.49,14.52c-19.52,0-22.81-7.63-22.81-15.43H343.86z"/>
		<path class="st0" d="M392.81,24.79h-16.96v-9.03h46.73v9.03h-16.96V59.8h-12.81V24.79z"/>
		<path class="st0" d="M446.79,14.6c18.42,0,26.17,9.88,26.17,23.18c0,13.3-7.75,23.18-26.17,23.18c-18.42,0-26.17-9.88-26.17-23.18
			C420.62,24.48,428.37,14.6,446.79,14.6z M446.79,51.93c9.76,0,12.99-6.41,12.99-14.15c0-7.75-3.23-14.15-12.99-14.15
			c-9.76,0-12.99,6.41-12.99,14.15C433.8,45.53,437.03,51.93,446.79,51.93z"/>
		<path class="st0" d="M475.27,15.76h16.84l20.07,31.72h0.12V15.76h11.35V59.8h-16.96l-19.95-31.72h-0.12V59.8h-11.35V15.76z"/>
		<path class="st0" d="M527.6,15.76h37.82v9.03h-25.01v8.17h23.67v9.03h-23.67v8.78h25.56v9.03H527.6V15.76z"/>
		<path class="st0" d="M144.71,96.53c0.13,5.61,2.95,6.89,9.53,6.89c8.32,0,9.59-2.68,9.59-4.64c0-2.93-3.35-3.9-8.92-4.88
			L148,92.68c-7.98-1.4-16.37-4.09-16.37-12.51c0-10.8,11-14.58,22.07-14.58c17.71,0,22.74,4.94,23.21,13.73h-13.69
			c-0.4-4.51-4.43-5.19-8.66-5.19c-6.17,0-8.86,1.89-8.86,4.33c0,2.99,4.43,3.78,9.59,4.76l6.51,1.22
			c8.86,1.65,16.1,4.27,16.1,12.99c0,12.26-13.62,14.52-24.49,14.52c-19.52,0-22.81-7.63-22.81-15.43H144.71z"/>
		<path class="st0" d="M228.77,90.67c0,15.25-8.48,21.29-23.79,21.29c-15.37,0-23.85-5.55-23.85-19.58V66.76h12.81v24.71
			c0,7.93,3.97,11.47,11.04,11.47c8.42,0,10.98-5.31,10.98-13.06V66.76h12.81V90.67z"/>
		<path class="st0" d="M231.51,66.76h24.58c9.88,0,17.33,4.39,17.33,14.46c0,8.84-5.55,13.97-18.79,13.97h-10.31v15.62h-12.81V66.76
			z M244.32,86.64h7.87c4.82,0,8.05-1.22,8.05-5.61c0-3.78-2.5-5.73-7.08-5.73h-8.85V86.64z"/>
		<path class="st0" d="M275.43,66.76h24.58c9.88,0,17.33,4.39,17.33,14.46c0,8.84-5.55,13.97-18.79,13.97h-10.31v15.62h-12.81V66.76
			z M288.24,86.64h7.87c4.82,0,8.05-1.22,8.05-5.61c0-3.78-2.5-5.73-7.08-5.73h-8.84V86.64z"/>
		<path class="st0" d="M319.4,66.76h12.81v35.02h24.89v9.03h-37.7V66.76z"/>
		<path class="st0" d="M367.22,95.12l-21.8-28.37h17.31l12.41,18.79l12.28-18.79h15.7l-21.81,28.37v15.68h-14.09V95.12z"/>
	</g>
	<path d="M61.44,64.52"/>
	<g>
		<path class="st0" d="M49.11,49.78h7.03v29.41c0,0,0,5.35-3.67,6.2h-0.92v2.77h4.59c0,0,9.06-0.36,12.9-3.85
			c2.55-2.32,4.42-4,4.45-7.1c0.03-2.66,0-32.95,0-32.95H49.11V49.78z"/>
		<ellipse class="st0" cx="42.01" cy="80.95" rx="10.57" ry="7.82"/>
	</g>
	<path d="M42.01,80.95"/>
	<g>
		<path class="st0" d="M81.14,99.62c-2.02,0-2.44,1.7-2.44,3.22c0,1.44,0.42,3.14,2.44,3.14c2.02,0,2.43-1.7,2.43-3.14
			C83.57,101.32,83.16,99.62,81.14,99.62z"/>
		<path class="st0" d="M28.68,99.62c-2.02,0-2.43,1.7-2.43,3.22c0,1.44,0.42,3.14,2.43,3.14c2.02,0,2.43-1.7,2.43-3.14
			C31.12,101.32,30.7,99.62,28.68,99.62z"/>
		<path class="st0" d="M10.92,15.45v96.16h101.03V15.45H10.92z M61.38,19.95l43.6,74.18H17.66L61.38,19.95z M22.39,104.76
			c0,2.29-2.09,3.12-4.07,3.12c-2.42,0-4.07-0.93-3.95-3.32h2.95c-0.03,0.59,0.16,1.43,0.98,1.43c1.16,0,1.1-1.29,1.11-1.46v-6.6
			h2.97V104.76z M28.68,107.88c-3.55,0-5.55-1.86-5.55-5.07c0-3.21,2-5.07,5.55-5.07c3.55,0,5.55,1.86,5.55,5.07
			C34.23,106.02,32.23,107.88,28.68,107.88z M44.54,107.68h-2.97v-3.99h-3.65v3.99h-2.97v-9.74h2.98v3.86h3.64v-3.86h2.97V107.68z
			 M56.04,107.68h-4.11l-3.64-7.46h-0.03v7.46h-2.67v-9.74h4.16l3.59,7.26l0.03-0.03v-7.23h2.67V107.68z M61.48,107.88
			c-2.49,0-4.69-0.66-4.74-3.3h2.97c-0.02,0.92,0.73,1.42,1.8,1.42c0.68,0,1.56-0.32,1.56-0.97c0-1.32-2.2-1.04-4.53-1.97
			c-1.08-0.43-1.62-1.32-1.62-2.37c0.12-2.31,2.35-2.94,4.59-2.94c2.21,0,4.48,0.71,4.31,3.06h-2.97c0.02-0.38-0.12-0.66-0.39-0.86
			c-0.25-0.2-0.64-0.31-1.14-0.31c-0.68,0-1.28,0.41-1.28,0.89c0,0.71,0.95,0.94,1.74,1.13c1.8,0.42,4.41,0.58,4.41,3.21
			C66.18,106.91,63.96,107.88,61.48,107.88z M72.33,107.68h-2.97v-7.85h-3.28v-1.89h9.61v1.89h-3.36V107.68z M81.14,107.88
			c-3.55,0-5.55-1.86-5.55-5.07c0-3.21,2-5.07,5.55-5.07c3.55,0,5.55,1.86,5.55,5.07C86.69,106.02,84.69,107.88,81.14,107.88z
			 M97.84,107.68h-4.11l-3.64-7.46h-0.03v7.46h-2.67v-9.74h4.16l3.59,7.26l0.03-0.03v-7.23h2.67V107.68z M107.09,99.83h-5.2v2.01
			h4.78v1.89h-4.78v2.06h5.2v1.89h-8.17v-9.74h8.17V99.83z"/>
	</g>
</g>
<path class="st0" d="M116.05,108.44c0-2.07,1.68-3.76,3.76-3.76c2.06,0,3.76,1.69,3.76,3.76c0,2.07-1.7,3.76-3.76,3.76
	C117.73,112.2,116.05,110.51,116.05,108.44z M117.05,108.44c0,1.6,1.29,2.76,2.76,2.76c1.45,0,2.76-1.16,2.76-2.76
	c0-1.61-1.31-2.76-2.76-2.76C118.33,105.68,117.05,106.83,117.05,108.44z M119.12,110.38h-0.9v-4.1h1.96c0.35,0,0.8,0.01,1.1,0.19
	c0.37,0.23,0.48,0.68,0.48,1.1c0,0.75-0.39,1.05-1.11,1.14l0.99,1.67h-1.03l-0.9-1.67h-0.59V110.38z M120.2,107.96
	c0.45,0.01,0.61-0.1,0.61-0.51c0-0.42-0.42-0.42-0.81-0.42h-0.88v0.93H120.2z"/>
</svg>
